<svg width="1200" height="229" viewBox="0 0 1200 229" fill="none" xmlns="http://www.w3.org/2000/svg">
<path d="M0 77.6175V0.273438H120V77.6175H0Z" fill="black"/>
<path d="M60 197.618C43.4818 197.618 29.3927 191.933 17.6356 180.614C5.87856 169.245 0 154.719 0 136.986C0 119.253 5.87856 104.921 17.6356 93.9901C29.3927 83.0589 43.5304 77.6177 60 77.6177C76.4696 77.6177 91.1417 83.1075 102.704 93.9901C114.219 104.921 120 119.253 120 136.986C120 154.719 114.219 169.245 102.704 180.614C91.1417 191.982 76.9069 197.618 60 197.618Z" fill="black"/>
<path d="M286 77.6175V0.273438H406V77.6175H286Z" fill="black"/>
<path d="M346 197.618C329.482 197.618 315.393 191.933 303.636 180.614C291.879 169.245 286 154.719 286 136.986C286 119.253 291.879 104.921 303.636 93.9901C315.393 83.0589 329.53 77.6177 346 77.6177C362.47 77.6177 377.142 83.1075 388.704 93.9901C400.219 104.921 406 119.253 406 136.986C406 154.719 400.219 169.245 388.704 180.614C377.142 191.982 362.907 197.618 346 197.618Z" fill="black"/>
<path d="M263 114.073V191.417H143V114.073H263Z" fill="#3F8ACA"/>
<path d="M203 -5.92716C219.518 -5.92716 233.607 -0.242956 245.364 11.0769C257.121 22.4453 263 36.9716 263 54.7044C263 72.4371 257.121 86.7691 245.364 97.7003C233.607 108.631 219.47 114.073 203 114.073C186.53 114.073 171.858 108.583 160.296 97.7003C148.781 86.7691 143 72.4371 143 54.7044C143 36.9716 148.781 22.4453 160.296 11.0769C171.858 -0.291539 186.093 -5.92716 203 -5.92716Z" fill="#3F8ACA"/>
<path d="M549 120.073V197.417H429V120.073H549Z" fill="#3F8ACA"/>
<path d="M489 0.072836C505.518 0.072836 519.607 5.75704 531.364 17.0769C543.121 28.4453 549 42.9716 549 60.7044C549 78.4371 543.121 92.7691 531.364 103.7C519.607 114.631 505.47 120.073 489 120.073C472.53 120.073 457.858 114.583 446.296 103.7C434.781 92.7691 429 78.4371 429 60.7044C429 42.9716 434.781 28.4453 446.296 17.0769C457.858 5.70846 472.093 0.072836 489 0.072836Z" fill="#3F8ACA"/>
<path d="M565 77.6175V0.273438H685V77.6175H565Z" fill="black"/>
<path d="M625 197.618C608.482 197.618 594.393 191.933 582.636 180.614C570.879 169.245 565 154.719 565 136.986C565 119.253 570.879 104.921 582.636 93.9901C594.393 83.0589 608.53 77.6177 625 77.6177C641.47 77.6177 656.142 83.1075 667.704 93.9901C679.219 104.921 685 119.253 685 136.986C685 154.719 679.219 169.245 667.704 180.614C656.142 191.982 641.907 197.618 625 197.618Z" fill="black"/>
<path d="M851 77.6175V0.273438H971V77.6175H851Z" fill="black"/>
<path d="M911 197.618C894.482 197.618 880.393 191.933 868.636 180.614C856.879 169.245 851 154.719 851 136.986C851 119.253 856.879 104.921 868.636 93.9901C880.393 83.0589 894.53 77.6177 911 77.6177C927.47 77.6177 942.142 83.1075 953.704 93.9901C965.219 104.921 971 119.253 971 136.986C971 154.719 965.219 169.245 953.704 180.614C942.142 191.982 927.907 197.618 911 197.618Z" fill="black"/>
<path d="M828 114.073V191.417H708V114.073H828Z" fill="#3F8ACA"/>
<path d="M768 -5.92716C784.518 -5.92716 798.607 -0.242956 810.364 11.0769C822.121 22.4453 828 36.9716 828 54.7044C828 72.4371 822.121 86.7691 810.364 97.7003C798.607 108.631 784.47 114.073 768 114.073C751.53 114.073 736.858 108.583 725.296 97.7003C713.781 86.7691 708 72.4371 708 54.7044C708 36.9716 713.781 22.4453 725.296 11.0769C736.858 -0.291539 751.093 -5.92716 768 -5.92716Z" fill="#3F8ACA"/>
<path d="M1114 120.073V197.417H994V120.073H1114Z" fill="#3F8ACA"/>
<path d="M1054 0.072836C1070.52 0.072836 1084.61 5.75704 1096.36 17.0769C1108.12 28.4453 1114 42.9716 1114 60.7044C1114 78.4371 1108.12 92.7691 1096.36 103.7C1084.61 114.631 1070.47 120.073 1054 120.073C1037.53 120.073 1022.86 114.583 1011.3 103.7C999.781 92.7691 994 78.4371 994 60.7044C994 42.9716 999.781 28.4453 1011.3 17.0769C1022.86 5.70846 1037.09 0.072836 1054 0.072836Z" fill="#3F8ACA"/>
<path d="M1130 77.6175V0.273438H1250V77.6175H1130Z" fill="black"/>
<path d="M1190 197.618C1173.48 197.618 1159.39 191.933 1147.64 180.614C1135.88 169.245 1130 154.719 1130 136.986C1130 119.253 1135.88 104.921 1147.64 93.9901C1159.39 83.0589 1173.53 77.6177 1190 77.6177C1206.47 77.6177 1221.14 83.1075 1232.7 93.9901C1244.22 104.921 1250 119.253 1250 136.986C1250 154.719 1244.22 169.245 1232.7 180.614C1221.14 191.982 1206.91 197.618 1190 197.618Z" fill="black"/>
</svg>
