<svg width="25" height="25" viewBox="0 0 25 25" fill="none" xmlns="http://www.w3.org/2000/svg">
<path d="M3.16667 0.416992H21.8333C22.5406 0.416992 23.2189 0.697944 23.719 1.19804C24.219 1.69814 24.5 2.37641 24.5 3.08366V21.7503C24.5 22.4576 24.219 23.1358 23.719 23.6359C23.2189 24.136 22.5406 24.417 21.8333 24.417H3.16667C2.45942 24.417 1.78115 24.136 1.28105 23.6359C0.780951 23.1358 0.5 22.4576 0.5 21.7503V3.08366C0.5 2.37641 0.780951 1.69814 1.28105 1.19804C1.78115 0.697944 2.45942 0.416992 3.16667 0.416992ZM20.5 3.08366H17.1667C15.929 3.08366 14.742 3.57532 13.8668 4.45049C12.9917 5.32566 12.5 6.51265 12.5 7.75033V11.0837H9.83333V15.0837H12.5V24.417H16.5V15.0837H20.5V11.0837H16.5V8.41699C16.5 8.06337 16.6405 7.72423 16.8905 7.47418C17.1406 7.22414 17.4797 7.08366 17.8333 7.08366H20.5V3.08366Z" fill="white"/>
</svg>
