<svg width="27" height="27" viewBox="0 0 27 27" fill="none" xmlns="http://www.w3.org/2000/svg">
<path d="M7.89996 0.0834961H19.1C23.3666 0.0834961 26.8333 3.55016 26.8333 7.81683V19.0168C26.8333 21.0678 26.0185 23.0348 24.5683 24.4851C23.118 25.9354 21.151 26.7502 19.1 26.7502H7.89996C3.63329 26.7502 0.166626 23.2835 0.166626 19.0168V7.81683C0.166626 5.76582 0.981386 3.79882 2.43167 2.34854C3.88195 0.898256 5.84895 0.0834961 7.89996 0.0834961ZM7.63329 2.75016C6.36025 2.75016 5.13936 3.25588 4.23918 4.15605C3.33901 5.05623 2.83329 6.27712 2.83329 7.55016V19.2835C2.83329 21.9368 4.97996 24.0835 7.63329 24.0835H19.3666C20.6397 24.0835 21.8606 23.5778 22.7607 22.6776C23.6609 21.7774 24.1666 20.5565 24.1666 19.2835V7.55016C24.1666 4.89683 22.02 2.75016 19.3666 2.75016H7.63329ZM20.5 4.75016C20.942 4.75016 21.3659 4.92576 21.6785 5.23832C21.991 5.55088 22.1666 5.9748 22.1666 6.41683C22.1666 6.85886 21.991 7.28278 21.6785 7.59534C21.3659 7.9079 20.942 8.0835 20.5 8.0835C20.0579 8.0835 19.634 7.9079 19.3214 7.59534C19.0089 7.28278 18.8333 6.85886 18.8333 6.41683C18.8333 5.9748 19.0089 5.55088 19.3214 5.23832C19.634 4.92576 20.0579 4.75016 20.5 4.75016ZM13.5 6.75016C15.2681 6.75016 16.9638 7.45254 18.214 8.70278C19.4642 9.95303 20.1666 11.6487 20.1666 13.4168C20.1666 15.1849 19.4642 16.8806 18.214 18.1309C16.9638 19.3811 15.2681 20.0835 13.5 20.0835C11.7318 20.0835 10.0362 19.3811 8.78591 18.1309C7.53567 16.8806 6.83329 15.1849 6.83329 13.4168C6.83329 11.6487 7.53567 9.95303 8.78591 8.70278C10.0362 7.45254 11.7318 6.75016 13.5 6.75016ZM13.5 9.41683C12.4391 9.41683 11.4217 9.83826 10.6715 10.5884C9.92139 11.3385 9.49996 12.356 9.49996 13.4168C9.49996 14.4777 9.92139 15.4951 10.6715 16.2453C11.4217 16.9954 12.4391 17.4168 13.5 17.4168C14.5608 17.4168 15.5782 16.9954 16.3284 16.2453C17.0785 15.4951 17.5 14.4777 17.5 13.4168C17.5 12.356 17.0785 11.3385 16.3284 10.5884C15.5782 9.83826 14.5608 9.41683 13.5 9.41683Z" fill="white"/>
</svg>
