<svg width="25" height="25" viewBox="0 0 25 25" fill="none" xmlns="http://www.w3.org/2000/svg">
<path d="M21.8333 0.416992C22.5406 0.416992 23.2189 0.697944 23.719 1.19804C24.219 1.69814 24.5 2.37641 24.5 3.08366V21.7503C24.5 22.4576 24.219 23.1358 23.719 23.6359C23.2189 24.136 22.5406 24.417 21.8333 24.417H3.16667C2.45942 24.417 1.78115 24.136 1.28105 23.6359C0.780951 23.1358 0.5 22.4576 0.5 21.7503V3.08366C0.5 2.37641 0.780951 1.69814 1.28105 1.19804C1.78115 0.697944 2.45942 0.416992 3.16667 0.416992H21.8333ZM21.1667 21.0837V14.017C21.1667 12.8642 20.7087 11.7586 19.8936 10.9434C19.0784 10.1283 17.9728 9.67033 16.82 9.67033C15.6867 9.67033 14.3667 10.3637 13.7267 11.4037V9.92366H10.0067V21.0837H13.7267V14.5103C13.7267 13.4837 14.5533 12.6437 15.58 12.6437C16.0751 12.6437 16.5499 12.8403 16.8999 13.1904C17.25 13.5405 17.4467 14.0153 17.4467 14.5103V21.0837H21.1667ZM5.67333 7.83033C6.26742 7.83033 6.83717 7.59433 7.25725 7.17425C7.67733 6.75416 7.91333 6.18441 7.91333 5.59033C7.91333 4.35033 6.91333 3.33699 5.67333 3.33699C5.07571 3.33699 4.50257 3.5744 4.07999 3.99698C3.6574 4.41956 3.42 4.9927 3.42 5.59033C3.42 6.83033 4.43333 7.83033 5.67333 7.83033ZM7.52667 21.0837V9.92366H3.83333V21.0837H7.52667Z" fill="white"/>
</svg>
