<svg width="105" height="23" viewBox="0 0 105 23" fill="none" xmlns="http://www.w3.org/2000/svg">
<path d="M12.332 22.2569C9.86812 22.2569 7.70395 21.7742 5.84579 20.812C3.98447 19.8467 2.5459 18.528 1.52691 16.856C0.507918 15.1839 0 13.2753 0 11.13C0 8.9848 0.501608 7.03831 1.50483 5.36628C2.50804 3.69425 3.88037 2.38187 5.6218 1.42913C7.36323 0.479541 9.33181 0.00317383 11.5275 0.00317383C13.7232 0.00317383 15.5499 0.451148 17.2534 1.35026C18.9539 2.24937 20.3009 3.53336 21.2915 5.20539C22.2821 6.88057 22.7774 8.8807 22.7774 11.2121C22.7774 11.4518 22.7648 11.7295 22.7364 12.0355C22.708 12.3446 22.6828 12.6317 22.6544 12.8999H5.10126V9.24349H19.364L16.9537 10.3287C16.9537 9.20248 16.7266 8.22766 16.2723 7.3948C15.818 6.56509 15.1871 5.91521 14.3857 5.44515C13.5813 4.97825 12.6443 4.74163 11.5749 4.74163C10.5054 4.74163 9.55895 4.97825 8.74187 5.44515C7.92478 5.91521 7.28752 6.5714 6.83323 7.41373C6.37894 8.25605 6.1518 9.25611 6.1518 10.4076V11.373C6.1518 12.5528 6.41365 13.5908 6.93418 14.4867C7.45788 15.3858 8.19294 16.0673 9.14252 16.5342C10.0921 17.0042 11.2121 17.2377 12.496 17.2377C13.6475 17.2377 14.6571 17.0642 15.5309 16.714C16.4016 16.367 17.1967 15.8433 17.9222 15.1461L21.2568 18.7614C20.2662 19.8845 19.0201 20.7489 17.5216 21.3515C16.0231 21.9541 14.2943 22.2569 12.3383 22.2569H12.332Z" fill="white"/>
<path d="M53.4637 0.321777C55.1768 0.321777 56.6974 0.662492 58.0224 1.34708C59.3474 2.02851 60.3916 3.07589 61.1551 4.47976C61.9185 5.88679 62.3002 7.68816 62.3002 9.88388V22.2569H56.0317V10.8492C56.0317 9.10781 55.6689 7.82382 54.9465 6.99411C54.224 6.16441 53.205 5.74798 51.8927 5.74798C50.9809 5.74798 50.1638 5.9562 49.4414 6.36947C48.719 6.7859 48.1543 7.40739 47.7536 8.23709C47.3529 9.0668 47.151 10.1236 47.151 11.4108V22.2569H40.8825V10.8492C40.8825 9.10781 40.526 7.82382 39.8193 6.99411C39.1095 6.16441 38.0968 5.74798 36.7876 5.74798C35.8759 5.74798 35.0588 5.9562 34.3364 6.36947C33.6139 6.7859 33.0492 7.40739 32.6486 8.23709C32.2479 9.0668 32.046 10.1236 32.046 11.4108V22.2569H25.7775V0.64356H31.7621V6.54929L30.639 4.82048C31.3866 3.3472 32.453 2.23041 33.8316 1.46696C35.2102 0.703501 36.7845 0.321777 38.5511 0.321777C40.5323 0.321777 42.2674 0.823382 43.7533 1.8266C45.2392 2.82982 46.2235 4.36304 46.7062 6.42625L44.4979 5.82369C45.2203 4.13589 46.3781 2.79827 47.9713 1.80767C49.5644 0.817074 51.391 0.321777 53.4543 0.321777H53.4637Z" fill="white"/>
<path d="M74.6604 22.2506C72.8117 22.2506 71.0387 22.0298 69.3383 21.5881C67.6379 21.1464 66.2908 20.5912 65.3002 19.9224L67.3886 15.4237C68.3792 16.0388 69.5496 16.5436 70.903 16.9316C72.2564 17.3197 73.5877 17.5153 74.9001 17.5153C76.345 17.5153 77.3703 17.3418 77.9729 16.9916C78.5754 16.6446 78.8783 16.1619 78.8783 15.5467C78.8783 15.0388 78.6448 14.6571 78.1748 14.4015C77.7047 14.146 77.0832 13.9535 76.3072 13.8179C75.5311 13.6854 74.6793 13.5497 73.755 13.4172C72.8306 13.2847 71.8999 13.1018 70.963 12.8746C70.026 12.6475 69.1679 12.3068 68.3918 11.8493C67.6158 11.395 66.9911 10.7798 66.5242 10.0006C66.0542 9.22455 65.8207 8.22133 65.8207 6.98781C65.8207 5.6218 66.2151 4.41668 67.0069 3.37245C67.7956 2.32822 68.9408 1.50483 70.4424 0.902264C71.941 0.299703 73.736 0 75.8245 0C77.2978 0 78.7963 0.160893 80.3232 0.482679C81.8501 0.804466 83.1215 1.27137 84.1405 1.88971L82.052 6.3474C81.0078 5.73222 79.9572 5.30948 78.8972 5.08233C77.8404 4.85519 76.8151 4.74162 75.8245 4.74162C74.4332 4.74162 73.4142 4.92775 72.7707 5.30317C72.1271 5.67858 71.8053 6.16127 71.8053 6.74805C71.8053 7.28436 72.0388 7.68502 72.5088 7.95317C72.9757 8.22133 73.6004 8.43585 74.3764 8.59675C75.1525 8.75764 76.0043 8.89645 76.9286 9.01949C77.853 9.13937 78.7837 9.31919 79.7206 9.56211C80.6576 9.80502 81.5094 10.1457 82.2728 10.5874C83.0363 11.0291 83.6578 11.6316 84.1405 12.3951C84.6231 13.1585 84.8629 14.1555 84.8629 15.389C84.8629 16.7297 84.4622 17.9128 83.6578 18.9444C82.8533 19.976 81.6955 20.7868 80.1812 21.3736C78.6669 21.9635 76.8277 22.2569 74.6572 22.2569L74.6604 22.2506Z" fill="white"/>
<path d="M87.8629 22.2569V0.643585H94.1314V22.2569H87.8629Z" fill="white"/>
<path d="M101.028 22.2569C99.955 22.2569 99.0401 21.8878 98.2767 21.1527C97.5132 20.4145 97.1315 19.4713 97.1315 18.3198C97.1315 17.1683 97.5132 16.2376 98.2767 15.5278C99.0401 14.818 99.9581 14.4646 101.028 14.4646C102.097 14.4646 103.05 14.8211 103.801 15.5278C104.548 16.2376 104.924 17.1683 104.924 18.3198C104.924 19.4713 104.548 20.4145 103.801 21.1527C103.05 21.891 102.125 22.2569 101.028 22.2569Z" fill="white"/>
</svg>
