<svg width="300" height="117" viewBox="0 0 300 117" fill="none" xmlns="http://www.w3.org/2000/svg">
<path d="M28.9673 51.9509C23.3262 51.9509 18.3713 50.8458 14.117 48.6428C9.85554 46.4326 6.5619 43.4134 4.22891 39.5853C1.89592 35.7572 0.733032 31.3873 0.733032 26.4757C0.733032 21.5642 1.88147 17.1077 4.17835 13.2795C6.47523 9.45139 9.61719 6.44667 13.6042 4.26536C17.5913 2.09127 22.0983 1.00061 27.1255 1.00061C32.1526 1.00061 36.3347 2.02626 40.235 4.08478C44.1281 6.13608 47.2123 9.08302 49.4803 12.9112C51.7483 16.7465 52.8823 21.3258 52.8823 26.6635C52.8823 27.2125 52.8534 27.8481 52.7884 28.5487C52.7234 29.2566 52.6656 29.9138 52.6006 30.5278H12.4124V22.1565H45.0671L39.5488 24.6411C39.5488 22.0626 39.0288 19.8235 37.9887 17.9238C36.9486 16.0242 35.504 14.5363 33.6694 13.4601C31.8276 12.3911 29.6824 11.8494 27.2338 11.8494C24.7853 11.8494 22.6184 12.3911 20.7477 13.4601C18.8769 14.5363 17.4179 16.0387 16.3778 17.9672C15.3377 19.8957 14.8177 22.1853 14.8177 24.8217V27.0319C14.8177 29.7333 15.4172 32.1096 16.6089 34.1609C17.8079 36.2122 19.4909 37.7796 21.665 38.8485C23.8391 39.9175 26.4032 40.4593 29.3429 40.4593C31.9793 40.4593 34.2906 40.062 36.2913 39.2603C38.2848 38.4657 40.105 37.2667 41.7663 35.6705L49.4009 43.9479C47.1329 46.5193 44.2798 48.4983 40.849 49.8779C37.4181 51.2575 33.4599 51.9509 28.9818 51.9509H28.9673Z" fill="black"/>
<path d="M123.674 1.00061C127.596 1.00061 131.077 1.78068 134.111 3.34805C137.145 4.90819 139.535 7.30619 141.283 10.5204C143.031 13.7418 143.905 17.8661 143.905 22.8932V51.2214H129.553V25.1034C129.553 21.1164 128.723 18.1766 127.069 16.277C125.415 14.3774 123.082 13.424 120.077 13.424C117.989 13.424 116.119 13.9007 114.465 14.8469C112.811 15.8003 111.518 17.2232 110.6 19.1228C109.683 21.0225 109.221 23.4421 109.221 26.3891V51.2214H94.869V25.1034C94.869 21.1164 94.0528 18.1766 92.4348 16.277C90.8097 14.3774 88.4911 13.424 85.4937 13.424C83.4062 13.424 81.5355 13.9007 79.8815 14.8469C78.2274 15.8003 76.9345 17.2232 76.0172 19.1228C75.0999 21.0225 74.6376 23.4421 74.6376 26.3891V51.2214H60.2858V1.73734H73.9876V15.2586L71.4162 11.3005C73.1281 7.92736 75.5694 5.37046 78.7258 3.62252C81.8822 1.87458 85.4864 1.00061 89.5312 1.00061C94.0672 1.00061 98.0398 2.14905 101.442 4.44593C104.844 6.75003 107.097 10.2604 108.202 14.9769L103.146 13.5973C104.8 9.73308 107.451 6.67058 111.099 4.40259C114.746 2.1346 118.928 1.00061 123.652 1.00061H123.674Z" fill="black"/>
<path d="M171.908 51.9508C167.676 51.9508 163.616 51.4452 159.723 50.434C155.83 49.4228 152.746 48.1516 150.478 46.6203L155.259 36.3205C157.527 37.729 160.207 38.8774 163.306 39.7658C166.404 40.6542 169.452 41.102 172.457 41.102C175.765 41.102 178.113 40.7048 179.492 39.9031C180.872 39.1085 181.565 38.0034 181.565 36.595C181.565 35.4321 181.031 34.5581 179.954 33.9731C178.878 33.388 177.455 32.9474 175.679 32.6368C173.902 32.3335 171.951 32.0229 169.835 31.7195C167.719 31.4162 165.588 30.9972 163.443 30.4772C161.298 29.9571 159.333 29.1771 157.556 28.1297C155.779 27.0896 154.349 25.6812 153.28 23.8971C152.204 22.1203 151.67 19.8234 151.67 16.9993C151.67 13.8718 152.572 11.1126 154.385 8.72184C156.191 6.33106 158.813 4.44589 162.251 3.06632C165.682 1.68674 169.792 0.993347 174.573 0.993347C177.946 0.993347 181.377 1.36171 184.873 2.09845C188.369 2.83518 191.28 3.91139 193.613 5.31986L188.831 15.5258C186.441 14.1173 184.035 13.1495 181.608 12.6294C179.189 12.1094 176.841 11.8421 174.573 11.8421C171.388 11.8421 169.055 12.2755 167.582 13.1278C166.108 13.9873 165.371 15.0924 165.371 16.4359C165.371 17.6638 165.906 18.5811 166.982 19.195C168.051 19.809 169.481 20.3001 171.258 20.6685C173.035 21.0369 174.985 21.3547 177.101 21.6364C179.218 21.9108 181.348 22.3225 183.494 22.8787C185.639 23.4276 187.589 24.2077 189.337 25.2261C191.085 26.2373 192.508 27.6169 193.613 29.3649C194.718 31.1128 195.267 33.3952 195.267 36.2122C195.267 39.2819 194.35 41.9905 192.508 44.3523C190.666 46.7142 188.015 48.5705 184.548 49.914C181.081 51.2647 176.87 51.9364 171.901 51.9364L171.908 51.9508Z" fill="black"/>
<path d="M202.476 51.2213V1.7373H216.827V51.2213H202.476Z" fill="black"/>
<path d="M225.784 31.0766V19.5778H243.624V31.0766H225.784Z" fill="black"/>
<path d="M85.3057 116.044C79.6647 116.044 74.7098 114.939 70.4555 112.736C66.194 110.526 62.9003 107.506 60.5674 103.678C58.2344 99.8501 57.0715 95.4803 57.0715 90.5687C57.0715 85.6571 58.2199 81.2006 60.5168 77.3725C62.8137 73.5443 65.9556 70.5396 69.9427 68.3583C73.9297 66.1842 78.4368 65.0936 83.4639 65.0936C88.491 65.0936 92.6731 66.1192 96.5735 68.1777C100.467 70.2363 103.551 73.176 105.819 77.0041C108.087 80.8395 109.221 85.4188 109.221 90.7565C109.221 91.3054 109.192 91.941 109.127 92.6417C109.062 93.3495 109.004 94.0068 108.939 94.6207H68.7509V86.2494H101.406L95.8873 88.7341C95.8873 86.1555 95.3672 83.9236 94.3271 82.0168C93.287 80.1172 91.8425 78.6293 90.0078 77.5531C88.166 76.4841 86.0208 75.9423 83.5723 75.9423C81.1237 75.9423 78.9568 76.4841 77.0861 77.5531C75.2154 78.6293 73.7563 80.1316 72.7162 82.0601C71.6762 83.9886 71.1561 86.2783 71.1561 88.9147V91.1249C71.1561 93.8262 71.7556 96.2025 72.9474 98.2538C74.1464 100.312 75.8293 101.873 78.0034 102.942C80.1775 104.018 82.7416 104.552 85.6813 104.552C88.3177 104.552 90.629 104.155 92.6298 103.353C94.6233 102.559 96.4434 101.36 98.1047 99.7634L105.739 108.041C103.471 110.612 100.618 112.591 97.1874 113.971C93.7565 115.35 89.7984 116.044 85.3202 116.044H85.3057Z" fill="black"/>
<path d="M180.012 65.0936C183.934 65.0936 187.416 65.8736 190.45 67.441C193.483 69.0012 195.874 71.3991 197.622 74.6133C199.37 77.8347 200.244 81.959 200.244 86.9861V115.314H185.892V89.1963C185.892 85.2093 185.061 82.2696 183.407 80.37C181.753 78.4704 179.42 77.5169 176.415 77.5169C174.328 77.5169 172.457 77.9936 170.803 78.9398C169.149 79.8933 167.856 81.3162 166.939 83.2158C166.022 85.1154 165.559 87.5351 165.559 90.482V115.314H151.208V89.1963C151.208 85.2093 150.391 82.2696 148.773 80.37C147.148 78.4704 144.83 77.5169 141.832 77.5169C139.745 77.5169 137.874 77.9936 136.22 78.9398C134.566 79.8933 133.273 81.3162 132.356 83.2158C131.439 85.1154 130.976 87.5351 130.976 90.482V115.314H116.624V65.8303H130.326V79.3515L127.755 75.3934C129.467 72.0203 131.908 69.4634 135.064 67.7155C138.221 65.9675 141.825 65.0936 145.87 65.0936C150.406 65.0936 154.378 66.242 157.78 68.5389C161.182 70.8358 163.436 74.3461 164.541 79.0699L159.485 77.6903C161.139 73.826 163.79 70.7635 167.437 68.4955C171.085 66.2276 175.267 65.0936 179.991 65.0936H180.012Z" fill="black"/>
<path d="M228.247 116.044C224.014 116.044 219.955 115.538 216.062 114.527C212.169 113.516 209.085 112.245 206.817 110.713L211.598 100.414C213.866 101.822 216.546 102.978 219.644 103.866C222.743 104.754 225.791 105.202 228.796 105.202C232.104 105.202 234.451 104.805 235.831 104.003C237.21 103.209 237.904 102.104 237.904 100.695C237.904 99.5323 237.369 98.6584 236.293 98.0733C235.217 97.4883 233.794 97.0477 232.017 96.7371C230.24 96.4337 228.29 96.1231 226.174 95.8198C224.058 95.5164 221.927 95.0975 219.782 94.5774C217.636 94.0574 215.672 93.2773 213.895 92.23C212.118 91.1899 210.688 89.7814 209.619 87.9974C208.543 86.2206 208.008 83.9237 208.008 81.0995C208.008 77.972 208.911 75.2129 210.724 72.8221C212.53 70.4313 215.152 68.5461 218.59 67.1666C222.021 65.787 226.131 65.1008 230.912 65.1008C234.285 65.1008 237.716 65.4692 241.212 66.2059C244.708 66.9427 247.619 68.0117 249.952 69.4273L245.17 79.6333C242.779 78.2248 240.374 77.257 237.947 76.7369C235.528 76.2169 233.18 75.9568 230.912 75.9568C227.727 75.9568 225.394 76.383 223.92 77.2425C222.447 78.102 221.71 79.2071 221.71 80.5506C221.71 81.7785 222.245 82.6958 223.321 83.3097C224.39 83.9237 225.82 84.4148 227.597 84.7832C229.374 85.1516 231.324 85.4694 233.44 85.7511C235.556 86.0255 237.687 86.4372 239.832 86.9934C241.978 87.5496 243.928 88.3296 245.676 89.3408C247.424 90.352 248.847 91.7316 249.952 93.4796C251.057 95.2275 251.606 97.5099 251.606 100.334C251.606 103.404 250.688 106.112 248.847 108.474C247.005 110.836 244.354 112.692 240.887 114.036C237.42 115.387 233.209 116.058 228.24 116.058L228.247 116.044Z" fill="black"/>
<path d="M258.814 115.314V65.8303H273.166V115.314H258.814Z" fill="black"/>
<path d="M291.043 116.044C288.587 116.044 286.492 115.199 284.744 113.516C282.996 111.826 282.122 109.666 282.122 107.03C282.122 104.393 282.996 102.262 284.744 100.637C286.492 99.0121 288.594 98.2032 291.043 98.2032C293.491 98.2032 295.672 99.0194 297.391 100.637C299.103 102.262 299.963 104.393 299.963 107.03C299.963 109.666 299.103 111.826 297.391 113.516C295.672 115.206 293.556 116.044 291.043 116.044Z" fill="black"/>
</svg>
