<svg width="107" height="108" viewBox="0 0 107 108" fill="none" xmlns="http://www.w3.org/2000/svg">
<path d="M41.4167 107.257C23.6667 107.257 4.19617e-05 101.34 4.19617e-05 59.9234V12.5901C4.19617e-05 5.19426 4.47304 0.656182 11.8334 0.756765H35.5C42.8959 0.756765 47.3334 5.19427 47.3334 12.4244V48.0901C47.3334 55.4859 42.8959 59.9234 35.5 59.9234C29.5834 59.9234 29.5834 59.9234 29.5834 65.8401V71.7568C29.5834 77.6734 35.5 83.5901 41.4167 83.5901C47.3334 83.5901 47.3334 83.6374 47.3334 89.6902V101.34C47.3334 107.257 47.3334 107.257 41.4167 107.257Z" fill="#3F8ACA"/>
<path d="M100.75 107.257C83 107.257 59.3333 101.34 59.3333 59.9234V12.5901C59.3333 5.19426 63.8122 0.656182 71.1666 0.756765H94.8333C102.229 0.756765 106.667 5.19427 106.667 12.4244V48.0901C106.667 55.4859 102.229 59.9234 94.8333 59.9234H90.3958C90.3958 73.2359 88.9166 83.5901 106.667 83.5901V101.34C106.667 107.257 106.667 107.257 100.75 107.257Z" fill="#3F8ACA"/>
</svg>
