<svg width="107" height="107" viewBox="0 0 107 107" fill="none" xmlns="http://www.w3.org/2000/svg">
<path d="M41.4167 106.758C23.6667 106.758 4.19617e-05 100.842 4.19617e-05 59.4251V12.0918C4.19617e-05 4.69597 4.47304 0.157891 11.8334 0.258474H35.5C42.8959 0.258474 47.3334 4.69597 47.3334 11.9261V47.5918C47.3334 54.9876 42.8959 59.4251 35.5 59.4251C29.5834 59.4251 29.5834 59.4251 29.5834 65.3418V71.2585C29.5834 77.1751 35.5 83.0918 41.4167 83.0918C47.3334 83.0918 47.3334 83.1391 47.3334 89.1919V100.842C47.3334 106.758 47.3334 106.758 41.4167 106.758Z" fill="white"/>
<path d="M100.75 106.758C83 106.758 59.3333 100.842 59.3333 59.4251V12.0918C59.3333 4.69597 63.8122 0.157891 71.1666 0.258474H94.8333C102.229 0.258474 106.667 4.69597 106.667 11.9261V47.5918C106.667 54.9876 102.229 59.4251 94.8333 59.4251H90.3958C90.3958 72.7376 88.9166 83.0918 106.667 83.0918V100.842C106.667 106.758 106.667 106.758 100.75 106.758Z" fill="white"/>
</svg>
