<svg width="7464" height="229" viewBox="0 0 7464 229" fill="none" xmlns="http://www.w3.org/2000/svg">
<path d="M0 77.3442V0.00012207H120V77.3442H0Z" fill="black"/>
<path d="M60 197.344C43.4818 197.344 29.3927 191.66 17.6356 180.34C5.87856 168.972 0 154.445 0 136.713C0 118.98 5.87856 104.648 17.6356 93.7167C29.3927 82.7855 43.5304 77.3442 60 77.3442C76.4696 77.3442 91.1417 82.8341 102.704 93.7167C114.219 104.648 120 118.98 120 136.713C120 154.445 114.219 168.972 102.704 180.34C91.1417 191.709 76.9069 197.344 60 197.344Z" fill="black"/>
<path d="M204 8.21081e-05C220.518 8.21081e-05 234.607 5.68429 246.364 17.0041C258.121 28.3725 264 42.8988 264 60.6316C264 78.3644 258.121 92.6964 246.364 103.628C234.607 114.559 220.47 120 204 120C187.53 120 172.858 114.51 161.296 103.628C149.781 92.6964 144 78.3644 144 60.6316C144 42.8988 149.781 28.3725 161.296 17.0041C172.858 5.63571 187.093 8.21081e-05 204 8.21081e-05Z" fill="#3F8ACA"/>
<path d="M264 120V197.344H144V120H264Z" fill="#3F8ACA"/>
<path d="M288 77.3441V0H408V77.3441H288Z" fill="black"/>
<path d="M348 197.344C331.482 197.344 317.393 191.66 305.636 180.34C293.879 168.971 288 154.445 288 136.712C288 118.98 293.879 104.648 305.636 93.7164C317.393 82.7853 331.53 77.344 348 77.344C364.47 77.344 379.142 82.8338 390.704 93.7164C402.219 104.648 408 118.98 408 136.712C408 154.445 402.219 168.971 390.704 180.34C379.142 191.708 364.907 197.344 348 197.344Z" fill="black"/>
<path d="M492 8.21081e-05C508.518 8.21081e-05 522.607 5.68429 534.364 17.0041C546.121 28.3725 552 42.8988 552 60.6316C552 78.3644 546.121 92.6964 534.364 103.628C522.607 114.559 508.47 120 492 120C475.53 120 460.858 114.51 449.296 103.628C437.781 92.6964 432 78.3644 432 60.6316C432 42.8988 437.781 28.3725 449.296 17.0041C460.858 5.63571 475.093 8.21081e-05 492 8.21081e-05Z" fill="#3F8ACA"/>
<path d="M552 120V197.344H432V120H552Z" fill="#3F8ACA"/>
<path d="M576 77.3442V0.00012207H696V77.3442H576Z" fill="black"/>
<path d="M636 197.344C619.482 197.344 605.393 191.66 593.636 180.34C581.879 168.972 576 154.445 576 136.713C576 118.98 581.879 104.648 593.636 93.7167C605.393 82.7855 619.53 77.3442 636 77.3442C652.47 77.3442 667.142 82.8341 678.704 93.7167C690.219 104.648 696 118.98 696 136.713C696 154.445 690.219 168.972 678.704 180.34C667.142 191.709 652.907 197.344 636 197.344Z" fill="black"/>
<path d="M780 8.21081e-05C796.518 8.21081e-05 810.607 5.68429 822.364 17.0041C834.121 28.3725 840 42.8988 840 60.6316C840 78.3644 834.121 92.6964 822.364 103.628C810.607 114.559 796.47 120 780 120C763.53 120 748.858 114.51 737.296 103.628C725.781 92.6964 720 78.3644 720 60.6316C720 42.8988 725.781 28.3725 737.296 17.0041C748.858 5.63571 763.093 8.21081e-05 780 8.21081e-05Z" fill="#3F8ACA"/>
<path d="M840 120V197.344H720V120H840Z" fill="#3F8ACA"/>
<path d="M864 77.3441V0H984V77.3441H864Z" fill="black"/>
<path d="M924 197.344C907.482 197.344 893.393 191.66 881.636 180.34C869.879 168.971 864 154.445 864 136.712C864 118.98 869.879 104.648 881.636 93.7164C893.393 82.7853 907.53 77.344 924 77.344C940.47 77.344 955.142 82.8338 966.704 93.7164C978.219 104.648 984 118.98 984 136.712C984 154.445 978.219 168.971 966.704 180.34C955.142 191.708 940.907 197.344 924 197.344Z" fill="black"/>
<path d="M1068 8.21081e-05C1084.52 8.21081e-05 1098.61 5.68429 1110.36 17.0041C1122.12 28.3725 1128 42.8988 1128 60.6316C1128 78.3644 1122.12 92.6964 1110.36 103.628C1098.61 114.559 1084.47 120 1068 120C1051.53 120 1036.86 114.51 1025.3 103.628C1013.78 92.6964 1008 78.3644 1008 60.6316C1008 42.8988 1013.78 28.3725 1025.3 17.0041C1036.86 5.63571 1051.09 8.21081e-05 1068 8.21081e-05Z" fill="#3F8ACA"/>
<path d="M1128 120V197.344H1008V120H1128Z" fill="#3F8ACA"/>
<path d="M1152 77.3442V0.00012207H1272V77.3442H1152Z" fill="black"/>
<path d="M1212 197.344C1195.48 197.344 1181.39 191.66 1169.64 180.34C1157.88 168.972 1152 154.445 1152 136.713C1152 118.98 1157.88 104.648 1169.64 93.7167C1181.39 82.7855 1195.53 77.3442 1212 77.3442C1228.47 77.3442 1243.14 82.8341 1254.7 93.7167C1266.22 104.648 1272 118.98 1272 136.713C1272 154.445 1266.22 168.972 1254.7 180.34C1243.14 191.709 1228.91 197.344 1212 197.344Z" fill="black"/>
<path d="M1356 8.21081e-05C1372.52 8.21081e-05 1386.61 5.68429 1398.36 17.0041C1410.12 28.3725 1416 42.8988 1416 60.6316C1416 78.3644 1410.12 92.6964 1398.36 103.628C1386.61 114.559 1372.47 120 1356 120C1339.53 120 1324.86 114.51 1313.3 103.628C1301.78 92.6964 1296 78.3644 1296 60.6316C1296 42.8988 1301.78 28.3725 1313.3 17.0041C1324.86 5.63571 1339.09 8.21081e-05 1356 8.21081e-05Z" fill="#3F8ACA"/>
<path d="M1416 120V197.344H1296V120H1416Z" fill="#3F8ACA"/>
<path d="M1440 77.3441V0H1560V77.3441H1440Z" fill="black"/>
<path d="M1500 197.344C1483.48 197.344 1469.39 191.66 1457.64 180.34C1445.88 168.971 1440 154.445 1440 136.712C1440 118.98 1445.88 104.648 1457.64 93.7164C1469.39 82.7853 1483.53 77.344 1500 77.344C1516.47 77.344 1531.14 82.8338 1542.7 93.7164C1554.22 104.648 1560 118.98 1560 136.712C1560 154.445 1554.22 168.971 1542.7 180.34C1531.14 191.708 1516.91 197.344 1500 197.344Z" fill="black"/>
<path d="M1644 8.21081e-05C1660.52 8.21081e-05 1674.61 5.68429 1686.36 17.0041C1698.12 28.3725 1704 42.8988 1704 60.6316C1704 78.3644 1698.12 92.6964 1686.36 103.628C1674.61 114.559 1660.47 120 1644 120C1627.53 120 1612.86 114.51 1601.3 103.628C1589.78 92.6964 1584 78.3644 1584 60.6316C1584 42.8988 1589.78 28.3725 1601.3 17.0041C1612.86 5.63571 1627.09 8.21081e-05 1644 8.21081e-05Z" fill="#3F8ACA"/>
<path d="M1704 120V197.344H1584V120H1704Z" fill="#3F8ACA"/>
<path d="M1728 77.3442V0.00012207H1848V77.3442H1728Z" fill="black"/>
<path d="M1788 197.344C1771.48 197.344 1757.39 191.66 1745.64 180.34C1733.88 168.972 1728 154.445 1728 136.713C1728 118.98 1733.88 104.648 1745.64 93.7167C1757.39 82.7855 1771.53 77.3442 1788 77.3442C1804.47 77.3442 1819.14 82.8341 1830.7 93.7167C1842.22 104.648 1848 118.98 1848 136.713C1848 154.445 1842.22 168.972 1830.7 180.34C1819.14 191.709 1804.91 197.344 1788 197.344Z" fill="black"/>
<path d="M1932 8.21081e-05C1948.52 8.21081e-05 1962.61 5.68429 1974.36 17.0041C1986.12 28.3725 1992 42.8988 1992 60.6316C1992 78.3644 1986.12 92.6964 1974.36 103.628C1962.61 114.559 1948.47 120 1932 120C1915.53 120 1900.86 114.51 1889.3 103.628C1877.78 92.6964 1872 78.3644 1872 60.6316C1872 42.8988 1877.78 28.3725 1889.3 17.0041C1900.86 5.63571 1915.09 8.21081e-05 1932 8.21081e-05Z" fill="#3F8ACA"/>
<path d="M1992 120V197.344H1872V120H1992Z" fill="#3F8ACA"/>
<path d="M2016 77.3441V0H2136V77.3441H2016Z" fill="black"/>
<path d="M2076 197.344C2059.48 197.344 2045.39 191.66 2033.64 180.34C2021.88 168.971 2016 154.445 2016 136.712C2016 118.98 2021.88 104.648 2033.64 93.7164C2045.39 82.7853 2059.53 77.344 2076 77.344C2092.47 77.344 2107.14 82.8338 2118.7 93.7164C2130.22 104.648 2136 118.98 2136 136.712C2136 154.445 2130.22 168.971 2118.7 180.34C2107.14 191.708 2092.91 197.344 2076 197.344Z" fill="black"/>
<path d="M2220 8.21081e-05C2236.52 8.21081e-05 2250.61 5.68429 2262.36 17.0041C2274.12 28.3725 2280 42.8988 2280 60.6316C2280 78.3644 2274.12 92.6964 2262.36 103.628C2250.61 114.559 2236.47 120 2220 120C2203.53 120 2188.86 114.51 2177.3 103.628C2165.78 92.6964 2160 78.3644 2160 60.6316C2160 42.8988 2165.78 28.3725 2177.3 17.0041C2188.86 5.63571 2203.09 8.21081e-05 2220 8.21081e-05Z" fill="#3F8ACA"/>
<path d="M2280 120V197.344H2160V120H2280Z" fill="#3F8ACA"/>
<path d="M2304 77.3442V0.00012207H2424V77.3442H2304Z" fill="black"/>
<path d="M2364 197.344C2347.48 197.344 2333.39 191.66 2321.64 180.34C2309.88 168.972 2304 154.445 2304 136.713C2304 118.98 2309.88 104.648 2321.64 93.7167C2333.39 82.7855 2347.53 77.3442 2364 77.3442C2380.47 77.3442 2395.14 82.8341 2406.7 93.7167C2418.22 104.648 2424 118.98 2424 136.713C2424 154.445 2418.22 168.972 2406.7 180.34C2395.14 191.709 2380.91 197.344 2364 197.344Z" fill="black"/>
<path d="M2508 8.21081e-05C2524.52 8.21081e-05 2538.61 5.68429 2550.36 17.0041C2562.12 28.3725 2568 42.8988 2568 60.6316C2568 78.3644 2562.12 92.6964 2550.36 103.628C2538.61 114.559 2524.47 120 2508 120C2491.53 120 2476.86 114.51 2465.3 103.628C2453.78 92.6964 2448 78.3644 2448 60.6316C2448 42.8988 2453.78 28.3725 2465.3 17.0041C2476.86 5.63571 2491.09 8.21081e-05 2508 8.21081e-05Z" fill="#3F8ACA"/>
<path d="M2568 120V197.344H2448V120H2568Z" fill="#3F8ACA"/>
<path d="M2592 77.3441V0H2712V77.3441H2592Z" fill="black"/>
<path d="M2652 197.344C2635.48 197.344 2621.39 191.66 2609.64 180.34C2597.88 168.971 2592 154.445 2592 136.712C2592 118.98 2597.88 104.648 2609.64 93.7164C2621.39 82.7853 2635.53 77.344 2652 77.344C2668.47 77.344 2683.14 82.8338 2694.7 93.7164C2706.22 104.648 2712 118.98 2712 136.712C2712 154.445 2706.22 168.971 2694.7 180.34C2683.14 191.708 2668.91 197.344 2652 197.344Z" fill="black"/>
<path d="M2796 8.21081e-05C2812.52 8.21081e-05 2826.61 5.68429 2838.36 17.0041C2850.12 28.3725 2856 42.8988 2856 60.6316C2856 78.3644 2850.12 92.6964 2838.36 103.628C2826.61 114.559 2812.47 120 2796 120C2779.53 120 2764.86 114.51 2753.3 103.628C2741.78 92.6964 2736 78.3644 2736 60.6316C2736 42.8988 2741.78 28.3725 2753.3 17.0041C2764.86 5.63571 2779.09 8.21081e-05 2796 8.21081e-05Z" fill="#3F8ACA"/>
<path d="M2856 120V197.344H2736V120H2856Z" fill="#3F8ACA"/>
<path d="M2880 77.3442V0.00012207H3000V77.3442H2880Z" fill="black"/>
<path d="M2940 197.344C2923.48 197.344 2909.39 191.66 2897.64 180.34C2885.88 168.972 2880 154.445 2880 136.713C2880 118.98 2885.88 104.648 2897.64 93.7167C2909.39 82.7855 2923.53 77.3442 2940 77.3442C2956.47 77.3442 2971.14 82.8341 2982.7 93.7167C2994.22 104.648 3000 118.98 3000 136.713C3000 154.445 2994.22 168.972 2982.7 180.34C2971.14 191.709 2956.91 197.344 2940 197.344Z" fill="black"/>
<path d="M3084 8.21081e-05C3100.52 8.21081e-05 3114.61 5.68429 3126.36 17.0041C3138.12 28.3725 3144 42.8988 3144 60.6316C3144 78.3644 3138.12 92.6964 3126.36 103.628C3114.61 114.559 3100.47 120 3084 120C3067.53 120 3052.86 114.51 3041.3 103.628C3029.78 92.6964 3024 78.3644 3024 60.6316C3024 42.8988 3029.78 28.3725 3041.3 17.0041C3052.86 5.63571 3067.09 8.21081e-05 3084 8.21081e-05Z" fill="#3F8ACA"/>
<path d="M3144 120V197.344H3024V120H3144Z" fill="#3F8ACA"/>
<path d="M3168 77.3441V0H3288V77.3441H3168Z" fill="black"/>
<path d="M3228 197.344C3211.48 197.344 3197.39 191.66 3185.64 180.34C3173.88 168.971 3168 154.445 3168 136.712C3168 118.98 3173.88 104.648 3185.64 93.7164C3197.39 82.7853 3211.53 77.344 3228 77.344C3244.47 77.344 3259.14 82.8338 3270.7 93.7164C3282.22 104.648 3288 118.98 3288 136.712C3288 154.445 3282.22 168.971 3270.7 180.34C3259.14 191.708 3244.91 197.344 3228 197.344Z" fill="black"/>
<path d="M3372 8.21081e-05C3388.52 8.21081e-05 3402.61 5.68429 3414.36 17.0041C3426.12 28.3725 3432 42.8988 3432 60.6316C3432 78.3644 3426.12 92.6964 3414.36 103.628C3402.61 114.559 3388.47 120 3372 120C3355.53 120 3340.86 114.51 3329.3 103.628C3317.78 92.6964 3312 78.3644 3312 60.6316C3312 42.8988 3317.78 28.3725 3329.3 17.0041C3340.86 5.63571 3355.09 8.21081e-05 3372 8.21081e-05Z" fill="#3F8ACA"/>
<path d="M3432 120V197.344H3312V120H3432Z" fill="#3F8ACA"/>
<path d="M3456 77.3442V0.00012207H3576V77.3442H3456Z" fill="black"/>
<path d="M3516 197.344C3499.48 197.344 3485.39 191.66 3473.64 180.34C3461.88 168.972 3456 154.445 3456 136.713C3456 118.98 3461.88 104.648 3473.64 93.7167C3485.39 82.7855 3499.53 77.3442 3516 77.3442C3532.47 77.3442 3547.14 82.8341 3558.7 93.7167C3570.22 104.648 3576 118.98 3576 136.713C3576 154.445 3570.22 168.972 3558.7 180.34C3547.14 191.709 3532.91 197.344 3516 197.344Z" fill="black"/>
<path d="M3660 8.21081e-05C3676.52 8.21081e-05 3690.61 5.68429 3702.36 17.0041C3714.12 28.3725 3720 42.8988 3720 60.6316C3720 78.3644 3714.12 92.6964 3702.36 103.628C3690.61 114.559 3676.47 120 3660 120C3643.53 120 3628.86 114.51 3617.3 103.628C3605.78 92.6964 3600 78.3644 3600 60.6316C3600 42.8988 3605.78 28.3725 3617.3 17.0041C3628.86 5.63571 3643.09 8.21081e-05 3660 8.21081e-05Z" fill="#3F8ACA"/>
<path d="M3720 120V197.344H3600V120H3720Z" fill="#3F8ACA"/>
<path d="M3744 77.3441V0H3864V77.3441H3744Z" fill="black"/>
<path d="M3804 197.344C3787.48 197.344 3773.39 191.66 3761.64 180.34C3749.88 168.971 3744 154.445 3744 136.712C3744 118.98 3749.88 104.648 3761.64 93.7164C3773.39 82.7853 3787.53 77.344 3804 77.344C3820.47 77.344 3835.14 82.8338 3846.7 93.7164C3858.22 104.648 3864 118.98 3864 136.712C3864 154.445 3858.22 168.971 3846.7 180.34C3835.14 191.708 3820.91 197.344 3804 197.344Z" fill="black"/>
<path d="M3948 8.21081e-05C3964.52 8.21081e-05 3978.61 5.68429 3990.36 17.0041C4002.12 28.3725 4008 42.8988 4008 60.6316C4008 78.3644 4002.12 92.6964 3990.36 103.628C3978.61 114.559 3964.47 120 3948 120C3931.53 120 3916.86 114.51 3905.3 103.628C3893.78 92.6964 3888 78.3644 3888 60.6316C3888 42.8988 3893.78 28.3725 3905.3 17.0041C3916.86 5.63571 3931.09 8.21081e-05 3948 8.21081e-05Z" fill="#3F8ACA"/>
<path d="M4008 120V197.344H3888V120H4008Z" fill="#3F8ACA"/>
<path d="M4032 77.3442V0.00012207H4152V77.3442H4032Z" fill="black"/>
<path d="M4092 197.344C4075.48 197.344 4061.39 191.66 4049.64 180.34C4037.88 168.972 4032 154.445 4032 136.713C4032 118.98 4037.88 104.648 4049.64 93.7167C4061.39 82.7855 4075.53 77.3442 4092 77.3442C4108.47 77.3442 4123.14 82.8341 4134.7 93.7167C4146.22 104.648 4152 118.98 4152 136.713C4152 154.445 4146.22 168.972 4134.7 180.34C4123.14 191.709 4108.91 197.344 4092 197.344Z" fill="black"/>
<path d="M4236 8.21081e-05C4252.52 8.21081e-05 4266.61 5.68429 4278.36 17.0041C4290.12 28.3725 4296 42.8988 4296 60.6316C4296 78.3644 4290.12 92.6964 4278.36 103.628C4266.61 114.559 4252.47 120 4236 120C4219.53 120 4204.86 114.51 4193.3 103.628C4181.78 92.6964 4176 78.3644 4176 60.6316C4176 42.8988 4181.78 28.3725 4193.3 17.0041C4204.86 5.63571 4219.09 8.21081e-05 4236 8.21081e-05Z" fill="#3F8ACA"/>
<path d="M4296 120V197.344H4176V120H4296Z" fill="#3F8ACA"/>
<path d="M4320 77.3441V0H4440V77.3441H4320Z" fill="black"/>
<path d="M4380 197.344C4363.48 197.344 4349.39 191.66 4337.64 180.34C4325.88 168.971 4320 154.445 4320 136.712C4320 118.98 4325.88 104.648 4337.64 93.7164C4349.39 82.7853 4363.53 77.344 4380 77.344C4396.47 77.344 4411.14 82.8338 4422.7 93.7164C4434.22 104.648 4440 118.98 4440 136.712C4440 154.445 4434.22 168.971 4422.7 180.34C4411.14 191.708 4396.91 197.344 4380 197.344Z" fill="black"/>
<path d="M4524 8.21081e-05C4540.52 8.21081e-05 4554.61 5.68429 4566.36 17.0041C4578.12 28.3725 4584 42.8988 4584 60.6316C4584 78.3644 4578.12 92.6964 4566.36 103.628C4554.61 114.559 4540.47 120 4524 120C4507.53 120 4492.86 114.51 4481.3 103.628C4469.78 92.6964 4464 78.3644 4464 60.6316C4464 42.8988 4469.78 28.3725 4481.3 17.0041C4492.86 5.63571 4507.09 8.21081e-05 4524 8.21081e-05Z" fill="#3F8ACA"/>
<path d="M4584 120V197.344H4464V120H4584Z" fill="#3F8ACA"/>
<path d="M4608 77.3442V0.00012207H4728V77.3442H4608Z" fill="black"/>
<path d="M4668 197.344C4651.48 197.344 4637.39 191.66 4625.64 180.34C4613.88 168.972 4608 154.445 4608 136.713C4608 118.98 4613.88 104.648 4625.64 93.7167C4637.39 82.7855 4651.53 77.3442 4668 77.3442C4684.47 77.3442 4699.14 82.8341 4710.7 93.7167C4722.22 104.648 4728 118.98 4728 136.713C4728 154.445 4722.22 168.972 4710.7 180.34C4699.14 191.709 4684.91 197.344 4668 197.344Z" fill="black"/>
<path d="M4812 8.21081e-05C4828.52 8.21081e-05 4842.61 5.68429 4854.36 17.0041C4866.12 28.3725 4872 42.8988 4872 60.6316C4872 78.3644 4866.12 92.6964 4854.36 103.628C4842.61 114.559 4828.47 120 4812 120C4795.53 120 4780.86 114.51 4769.3 103.628C4757.78 92.6964 4752 78.3644 4752 60.6316C4752 42.8988 4757.78 28.3725 4769.3 17.0041C4780.86 5.63571 4795.09 8.21081e-05 4812 8.21081e-05Z" fill="#3F8ACA"/>
<path d="M4872 120V197.344H4752V120H4872Z" fill="#3F8ACA"/>
<path d="M4896 77.3441V0H5016V77.3441H4896Z" fill="black"/>
<path d="M4956 197.344C4939.48 197.344 4925.39 191.66 4913.64 180.34C4901.88 168.971 4896 154.445 4896 136.712C4896 118.98 4901.88 104.648 4913.64 93.7164C4925.39 82.7853 4939.53 77.344 4956 77.344C4972.47 77.344 4987.14 82.8338 4998.7 93.7164C5010.22 104.648 5016 118.98 5016 136.712C5016 154.445 5010.22 168.971 4998.7 180.34C4987.14 191.708 4972.91 197.344 4956 197.344Z" fill="black"/>
<path d="M5100 8.21081e-05C5116.52 8.21081e-05 5130.61 5.68429 5142.36 17.0041C5154.12 28.3725 5160 42.8988 5160 60.6316C5160 78.3644 5154.12 92.6964 5142.36 103.628C5130.61 114.559 5116.47 120 5100 120C5083.53 120 5068.86 114.51 5057.3 103.628C5045.78 92.6964 5040 78.3644 5040 60.6316C5040 42.8988 5045.78 28.3725 5057.3 17.0041C5068.86 5.63571 5083.09 8.21081e-05 5100 8.21081e-05Z" fill="#3F8ACA"/>
<path d="M5160 120V197.344H5040V120H5160Z" fill="#3F8ACA"/>
<path d="M5184 77.3442V0.00012207H5304V77.3442H5184Z" fill="black"/>
<path d="M5244 197.344C5227.48 197.344 5213.39 191.66 5201.64 180.34C5189.88 168.972 5184 154.445 5184 136.713C5184 118.98 5189.88 104.648 5201.64 93.7167C5213.39 82.7855 5227.53 77.3442 5244 77.3442C5260.47 77.3442 5275.14 82.8341 5286.7 93.7167C5298.22 104.648 5304 118.98 5304 136.713C5304 154.445 5298.22 168.972 5286.7 180.34C5275.14 191.709 5260.91 197.344 5244 197.344Z" fill="black"/>
<path d="M5388 8.21081e-05C5404.52 8.21081e-05 5418.61 5.68429 5430.36 17.0041C5442.12 28.3725 5448 42.8988 5448 60.6316C5448 78.3644 5442.12 92.6964 5430.36 103.628C5418.61 114.559 5404.47 120 5388 120C5371.53 120 5356.86 114.51 5345.3 103.628C5333.78 92.6964 5328 78.3644 5328 60.6316C5328 42.8988 5333.78 28.3725 5345.3 17.0041C5356.86 5.63571 5371.09 8.21081e-05 5388 8.21081e-05Z" fill="#3F8ACA"/>
<path d="M5448 120V197.344H5328V120H5448Z" fill="#3F8ACA"/>
<path d="M5472 77.3441V0H5592V77.3441H5472Z" fill="black"/>
<path d="M5532 197.344C5515.48 197.344 5501.39 191.66 5489.64 180.34C5477.88 168.971 5472 154.445 5472 136.712C5472 118.98 5477.88 104.648 5489.64 93.7164C5501.39 82.7853 5515.53 77.344 5532 77.344C5548.47 77.344 5563.14 82.8338 5574.7 93.7164C5586.22 104.648 5592 118.98 5592 136.712C5592 154.445 5586.22 168.971 5574.7 180.34C5563.14 191.708 5548.91 197.344 5532 197.344Z" fill="black"/>
<path d="M5676 8.21081e-05C5692.52 8.21081e-05 5706.61 5.68429 5718.36 17.0041C5730.12 28.3725 5736 42.8988 5736 60.6316C5736 78.3644 5730.12 92.6964 5718.36 103.628C5706.61 114.559 5692.47 120 5676 120C5659.53 120 5644.86 114.51 5633.3 103.628C5621.78 92.6964 5616 78.3644 5616 60.6316C5616 42.8988 5621.78 28.3725 5633.3 17.0041C5644.86 5.63571 5659.09 8.21081e-05 5676 8.21081e-05Z" fill="#3F8ACA"/>
<path d="M5736 120V197.344H5616V120H5736Z" fill="#3F8ACA"/>
<path d="M5760 77.3442V0.00012207H5880V77.3442H5760Z" fill="black"/>
<path d="M5820 197.344C5803.48 197.344 5789.39 191.66 5777.64 180.34C5765.88 168.972 5760 154.445 5760 136.713C5760 118.98 5765.88 104.648 5777.64 93.7167C5789.39 82.7855 5803.53 77.3442 5820 77.3442C5836.47 77.3442 5851.14 82.8341 5862.7 93.7167C5874.22 104.648 5880 118.98 5880 136.713C5880 154.445 5874.22 168.972 5862.7 180.34C5851.14 191.709 5836.91 197.344 5820 197.344Z" fill="black"/>
<path d="M5964 8.21081e-05C5980.52 8.21081e-05 5994.61 5.68429 6006.36 17.0041C6018.12 28.3725 6024 42.8988 6024 60.6316C6024 78.3644 6018.12 92.6964 6006.36 103.628C5994.61 114.559 5980.47 120 5964 120C5947.53 120 5932.86 114.51 5921.3 103.628C5909.78 92.6964 5904 78.3644 5904 60.6316C5904 42.8988 5909.78 28.3725 5921.3 17.0041C5932.86 5.63571 5947.09 8.21081e-05 5964 8.21081e-05Z" fill="#3F8ACA"/>
<path d="M6024 120V197.344H5904V120H6024Z" fill="#3F8ACA"/>
<path d="M6048 77.3441V0H6168V77.3441H6048Z" fill="black"/>
<path d="M6108 197.344C6091.48 197.344 6077.39 191.66 6065.64 180.34C6053.88 168.971 6048 154.445 6048 136.712C6048 118.98 6053.88 104.648 6065.64 93.7164C6077.39 82.7853 6091.53 77.344 6108 77.344C6124.47 77.344 6139.14 82.8338 6150.7 93.7164C6162.22 104.648 6168 118.98 6168 136.712C6168 154.445 6162.22 168.971 6150.7 180.34C6139.14 191.708 6124.91 197.344 6108 197.344Z" fill="black"/>
<path d="M6252 8.21081e-05C6268.52 8.21081e-05 6282.61 5.68429 6294.36 17.0041C6306.12 28.3725 6312 42.8988 6312 60.6316C6312 78.3644 6306.12 92.6964 6294.36 103.628C6282.61 114.559 6268.47 120 6252 120C6235.53 120 6220.86 114.51 6209.3 103.628C6197.78 92.6964 6192 78.3644 6192 60.6316C6192 42.8988 6197.78 28.3725 6209.3 17.0041C6220.86 5.63571 6235.09 8.21081e-05 6252 8.21081e-05Z" fill="#3F8ACA"/>
<path d="M6312 120V197.344H6192V120H6312Z" fill="#3F8ACA"/>
<path d="M6336 77.3442V0.00012207H6456V77.3442H6336Z" fill="black"/>
<path d="M6396 197.344C6379.48 197.344 6365.39 191.66 6353.64 180.34C6341.88 168.972 6336 154.445 6336 136.713C6336 118.98 6341.88 104.648 6353.64 93.7167C6365.39 82.7855 6379.53 77.3442 6396 77.3442C6412.47 77.3442 6427.14 82.8341 6438.7 93.7167C6450.22 104.648 6456 118.98 6456 136.713C6456 154.445 6450.22 168.972 6438.7 180.34C6427.14 191.709 6412.91 197.344 6396 197.344Z" fill="black"/>
<path d="M6540 8.21081e-05C6556.52 8.21081e-05 6570.61 5.68429 6582.36 17.0041C6594.12 28.3725 6600 42.8988 6600 60.6316C6600 78.3644 6594.12 92.6964 6582.36 103.628C6570.61 114.559 6556.47 120 6540 120C6523.53 120 6508.86 114.51 6497.3 103.628C6485.78 92.6964 6480 78.3644 6480 60.6316C6480 42.8988 6485.78 28.3725 6497.3 17.0041C6508.86 5.63571 6523.09 8.21081e-05 6540 8.21081e-05Z" fill="#3F8ACA"/>
<path d="M6600 120V197.344H6480V120H6600Z" fill="#3F8ACA"/>
<path d="M6624 77.3441V0H6744V77.3441H6624Z" fill="black"/>
<path d="M6684 197.344C6667.48 197.344 6653.39 191.66 6641.64 180.34C6629.88 168.971 6624 154.445 6624 136.712C6624 118.98 6629.88 104.648 6641.64 93.7164C6653.39 82.7853 6667.53 77.344 6684 77.344C6700.47 77.344 6715.14 82.8338 6726.7 93.7164C6738.22 104.648 6744 118.98 6744 136.712C6744 154.445 6738.22 168.971 6726.7 180.34C6715.14 191.708 6700.91 197.344 6684 197.344Z" fill="black"/>
<path d="M6828 8.21081e-05C6844.52 8.21081e-05 6858.61 5.68429 6870.36 17.0041C6882.12 28.3725 6888 42.8988 6888 60.6316C6888 78.3644 6882.12 92.6964 6870.36 103.628C6858.61 114.559 6844.47 120 6828 120C6811.53 120 6796.86 114.51 6785.3 103.628C6773.78 92.6964 6768 78.3644 6768 60.6316C6768 42.8988 6773.78 28.3725 6785.3 17.0041C6796.86 5.63571 6811.09 8.21081e-05 6828 8.21081e-05Z" fill="#3F8ACA"/>
<path d="M6888 120V197.344H6768V120H6888Z" fill="#3F8ACA"/>
<path d="M6912 77.3442V0.00012207H7032V77.3442H6912Z" fill="black"/>
<path d="M6972 197.344C6955.48 197.344 6941.39 191.66 6929.64 180.34C6917.88 168.972 6912 154.445 6912 136.713C6912 118.98 6917.88 104.648 6929.64 93.7167C6941.39 82.7855 6955.53 77.3442 6972 77.3442C6988.47 77.3442 7003.14 82.8341 7014.7 93.7167C7026.22 104.648 7032 118.98 7032 136.713C7032 154.445 7026.22 168.972 7014.7 180.34C7003.14 191.709 6988.91 197.344 6972 197.344Z" fill="black"/>
<path d="M7116 8.21081e-05C7132.52 8.21081e-05 7146.61 5.68429 7158.36 17.0041C7170.12 28.3725 7176 42.8988 7176 60.6316C7176 78.3644 7170.12 92.6964 7158.36 103.628C7146.61 114.559 7132.47 120 7116 120C7099.53 120 7084.86 114.51 7073.3 103.628C7061.78 92.6964 7056 78.3644 7056 60.6316C7056 42.8988 7061.78 28.3725 7073.3 17.0041C7084.86 5.63571 7099.09 8.21081e-05 7116 8.21081e-05Z" fill="#3F8ACA"/>
<path d="M7176 120V197.344H7056V120H7176Z" fill="#3F8ACA"/>
<path d="M7200 77.3441V0H7320V77.3441H7200Z" fill="black"/>
<path d="M7260 197.344C7243.48 197.344 7229.39 191.66 7217.64 180.34C7205.88 168.971 7200 154.445 7200 136.712C7200 118.98 7205.88 104.648 7217.64 93.7164C7229.39 82.7853 7243.53 77.344 7260 77.344C7276.47 77.344 7291.14 82.8338 7302.7 93.7164C7314.22 104.648 7320 118.98 7320 136.712C7320 154.445 7314.22 168.971 7302.7 180.34C7291.14 191.708 7276.91 197.344 7260 197.344Z" fill="black"/>
<path d="M7404 8.21081e-05C7420.52 8.21081e-05 7434.61 5.68429 7446.36 17.0041C7458.12 28.3725 7464 42.8988 7464 60.6316C7464 78.3644 7458.12 92.6964 7446.36 103.628C7434.61 114.559 7420.47 120 7404 120C7387.53 120 7372.86 114.51 7361.3 103.628C7349.78 92.6964 7344 78.3644 7344 60.6316C7344 42.8988 7349.78 28.3725 7361.3 17.0041C7372.86 5.63571 7387.09 8.21081e-05 7404 8.21081e-05Z" fill="#3F8ACA"/>
<path d="M7464 120V197.344H7344V120H7464Z" fill="#3F8ACA"/>
</svg>
